<?xml version="1.0" encoding="UTF-8" standalone="yes"?>
<svg version="1.2" viewBox="0 0 1004 1004" xml:space="preserve" baseProfile="tiny-ps" xmlns="http://www.w3.org/2000/svg">
  <title>bimi-svg-tiny-12-ps</title>
  <g>
    <path class="st0" d="M924.9,1002H79.1C36.5,1002,2,967.5,2,924.9V79.1C2,36.5,36.5,2,79.1,2h845.8c42.6,0,77.1,34.5,77.1,77.1&#xA;&#x9;&#x9;v845.8C1002,967.5,967.5,1002,924.9,1002z" fill="#FDD5EA"/>
    <path class="st1" d="M522.6,255.7c89.6-1.9,149.1,53.5,163.4,118.1c15.1,68.5-5.4,127.1-56.1,175.2c-8.4,7.9-17.9,14.8-27.6,21&#xA;&#x9;&#x9;c-16.7,10.6-34.7,10.4-51.8,1.3c-17.2-9.1-22.7-25.1-22.1-43.9c0.4-13,8.1-20.3,18-26.4c28.6-17.4,38.9-43.7,35.9-75.9&#xA;&#x9;&#x9;c-2.6-27.8-29.4-52.4-57.5-54.8c-54.2-4.5-80.6,37-83.5,76.2c-3.2,43.8,15.6,78.6,42.9,110c23.3,26.9,52.3,46.3,83.6,63.1&#xA;&#x9;&#x9;c19.1,10.3,37.3,23.3,53.5,37.8c17.1,15.3,20.1,36.2,10.8,57.3c-9.6,21.6-26.8,34.3-50.7,33.6c-13.6-0.4-28.3-2-40.4-7.7&#xA;&#x9;&#x9;c-66.2-30.7-126-70.8-171.1-129.3c-34.3-44.4-54.2-95.3-56.5-151.5c-3.5-83.3,41.8-151.5,120.8-185.4&#xA;&#x9;&#x9;C462.8,262.1,492.4,254.6,522.6,255.7z" fill="#192C5B"/>
  </g>
</svg>